<?xml version="1.0" encoding="UTF-8"?>
<svg id="Layer_2" data-name="Layer 2" xmlns="http://www.w3.org/2000/svg" xmlns:xlink="http://www.w3.org/1999/xlink" viewBox="0 0 346.03 248.07">
  <defs>
    <style>
      .cls-1 {
        fill: #111;
      }

      .cls-2 {
        fill: #f4f4f4;
      }

      .cls-3 {
        fill: url(#linear-gradient);
      }
    </style>
    <linearGradient id="linear-gradient" x1="170.99" y1="123.68" x2="320.52" y2="123.68" gradientUnits="userSpaceOnUse">
      <stop offset="0" stop-color="#dff11f"/>
      <stop offset=".42" stop-color="#00caee"/>
      <stop offset=".81" stop-color="#0074fe"/>
    </linearGradient>
  </defs>
  <g id="RESOURCES">
    <g>
      <polygon class="cls-1" points="346.03 0 341.93 6.87 327.17 32.34 266.28 137.37 202.1 248.07 52.5 248.07 0 156.49 58.24 57.64 24.45 0 346.03 0"/>
      <polygon class="cls-2" points="221 59.5 220.79 59.86 73.76 59.86 71.81 56.47 48.64 16.35 196.08 16.35 197.1 18.11 208.84 38.45 221 59.5"/>
      <g>
        <polygon class="cls-2" points="102.24 144.63 88.53 168.36 67.02 168.36 80.72 144.63 102.24 144.63"/>
        <polygon class="cls-2" points="197.7 99.84 184.52 122.68 171.84 144.63 159.26 166.42 158.14 168.36 110.34 168.36 123.38 145.78 124.04 144.63 147.54 144.63 160.21 122.68 136.72 122.68 149.9 99.84 128.1 99.84 124.46 106.15 114.91 122.68 93.4 122.68 101.72 108.27 106.58 99.84 113.7 87.52 119.77 77 186.58 77 173.39 99.84 197.7 99.84"/>
        <polygon class="cls-2" points="136.72 122.68 135.36 125.03 124.04 144.63 102.24 144.63 112.47 126.9 114.91 122.68 136.72 122.68"/>
      </g>
      <polygon class="cls-2" points="96.38 77 90.02 88.01 83.19 99.84 70 122.68 57.33 144.63 43.63 168.36 32.77 187.16 21.92 168.36 14.56 155.62 14.56 155.61 20.9 144.63 46.76 99.84 59.94 77 96.38 77"/>
      <polygon class="cls-3" points="320.52 16.35 295.4 59.86 285.49 77 272.31 99.84 269.72 104.32 259.12 122.68 258.3 124.1 246.45 144.63 232.74 168.36 221.88 187.17 196.56 231.02 171.24 187.17 170.99 186.73 181.6 168.36 195.3 144.63 207.97 122.68 221.16 99.84 232.73 79.81 234.35 77 244.15 60.03 244.25 59.86 244.05 59.86 232.42 39.72 220.26 18.67 218.93 16.35 320.52 16.35"/>
      <polygon class="cls-2" points="173.29 232.22 58.8 232.22 55.23 226.05 44.47 207.42 32.78 187.17 147.28 187.17 147.28 187.17 159.01 207.48 173.29 232.22"/>
    </g>
  </g>
</svg>